<svg width="32" height="54" viewBox="0 0 32 54" fill="none" xmlns="http://www.w3.org/2000/svg">
<path d="M10.7175 45.9H18.7557V54H10.7175V45.9ZM16.0763 0C30.411 0.594 36.654 15.174 28.1335 26.109C25.9096 28.809 22.3193 30.591 20.5509 32.859C18.7557 35.1 18.7557 37.8 18.7557 40.5H10.7175C10.7175 35.991 10.7175 32.184 12.5127 29.484C14.2811 26.784 17.8715 25.191 20.0954 23.409C26.5795 17.361 24.9718 8.802 16.0763 8.1C13.9444 8.1 11.8999 8.95339 10.3925 10.4724C8.88502 11.9915 8.03815 14.0517 8.03815 16.2H0C0 11.9035 1.69375 7.78296 4.70864 4.74487C7.72353 1.70678 11.8126 0 16.0763 0Z" fill="black"/>
</svg>
