<svg width="56" height="50" viewBox="0 0 56 50" fill="none" xmlns="http://www.w3.org/2000/svg">
<path d="M28 0.25C12.875 0.25 0.5 10.15 0.5 22.25C0.5 28.3 3.525 33.8 8.2 37.375C8.2 39.025 7.1 43.425 0.5 49.75C7.1 49.475 13.15 47 18.375 42.875C21.4 43.7 24.7 44.25 28 44.25C43.125 44.25 55.5 34.35 55.5 22.25C55.5 10.15 43.125 0.25 28 0.25ZM28 38.75C15.9 38.75 6 31.325 6 22.25C6 13.175 15.9 5.75 28 5.75C40.1 5.75 50 13.175 50 22.25C50 31.325 40.1 38.75 28 38.75ZM28.55 9.875C26.075 9.875 24.15 10.425 22.775 11.25C21.125 12.35 20.3 14 20.575 15.925H26.075C26.075 15.1 26.35 14.55 26.9 14.275C27.45 14 28 13.725 28.825 13.725C29.65 13.725 30.475 14 31.025 14.55C31.575 15.1 31.85 15.65 31.85 16.475C31.85 17.3 31.575 17.85 31.3 18.4C30.75 18.95 30.2 19.5 29.65 19.775C28.275 20.6 27.175 21.425 26.625 21.975C25.525 22.8 25.25 23.625 25.25 25H30.75C30.75 24.175 31.025 23.625 31.025 23.075C31.3 22.525 31.85 22.25 32.4 21.7C33.775 21.15 34.6 20.325 35.425 19.225C36.25 18.125 36.525 17.025 36.525 15.925C36.525 14 35.7 12.35 34.325 11.25C33.225 10.425 31.025 9.875 28.55 9.875ZM25.25 27.75V33.25H30.75V27.75H25.25Z" fill="black"/>
</svg>
