<svg width="48" height="44" viewBox="0 0 48 44" fill="none" xmlns="http://www.w3.org/2000/svg">
<path d="M39.6803 28.44C40.497 26.4566 40.9403 24.3333 40.9403 22C40.9403 20.32 40.6837 18.71 40.2403 17.2166C38.7237 17.5666 37.137 17.7533 35.4803 17.7533C32.0876 17.7569 28.7437 16.9448 25.7306 15.3855C22.7174 13.8261 20.1233 11.5652 18.167 8.79329C16.0742 13.857 12.1263 17.9302 7.13033 20.18C7.03699 20.7633 7.03699 21.3933 7.03699 22C7.03699 24.2276 7.47576 26.4335 8.32825 28.4915C9.18074 30.5496 10.4302 32.4197 12.0054 33.9948C15.1867 37.1761 19.5014 38.9633 24.0003 38.9633C26.4503 38.9633 28.807 38.4266 30.9303 37.47C32.2603 40.0133 32.867 41.2733 32.8203 41.2733C28.9937 42.5566 26.0303 43.1866 24.0003 43.1866C18.3537 43.1866 12.9637 40.97 8.99699 36.98C6.58432 34.5747 4.79086 31.6203 3.77033 28.37H0.666992V17.7533H3.21033C3.98089 14.0025 5.75247 10.5302 8.3371 7.705C10.9217 4.87976 14.223 2.80691 17.8906 1.70639C21.5581 0.605879 25.4552 0.518758 29.1683 1.45427C32.8814 2.38979 36.272 4.31304 38.9803 7.01996C41.9208 9.94888 43.9265 13.6842 44.7437 17.7533H47.3337V28.37H47.1937L38.887 36L26.5203 34.6V30.7033H37.7903L39.6803 28.44ZM17.6303 21.4633C18.3303 21.4633 19.007 21.7433 19.497 22.2566C19.9894 22.7531 20.2657 23.424 20.2657 24.1233C20.2657 24.8226 19.9894 25.4935 19.497 25.99C19.007 26.48 18.3303 26.76 17.6303 26.76C16.1603 26.76 14.9703 25.5933 14.9703 24.1233C14.9703 22.6533 16.1603 21.4633 17.6303 21.4633ZM30.347 21.4633C31.817 21.4633 32.9837 22.6533 32.9837 24.1233C32.9837 25.5933 31.817 26.76 30.347 26.76C28.877 26.76 27.687 25.5933 27.687 24.1233C27.687 23.4178 27.9672 22.7412 28.4661 22.2424C28.9649 21.7435 29.6415 21.4633 30.347 21.4633Z" fill="black"/>
</svg>
